<?xml version="1.0" encoding="UTF-8" standalone="no" ?>
<!DOCTYPE svg PUBLIC "-//W3C//DTD SVG 1.1//EN" "http://www.w3.org/Graphics/SVG/1.1/DTD/svg11.dtd">
<svg xmlns="http://www.w3.org/2000/svg" xmlns:xlink="http://www.w3.org/1999/xlink" version="1.1" width="900" height="900" viewBox="0 0 900 900" xml:space="preserve">
<desc>Created with Fabric.js 5.2.4</desc>
<defs>
</defs>
<g transform="matrix(1 0 0 1 450 450)" id="0f838639-2c33-45d4-a733-ddde80f745f1"  >
<rect style="stroke: none; stroke-width: 1; stroke-dasharray: none; stroke-linecap: butt; stroke-dashoffset: 0; stroke-linejoin: miter; stroke-miterlimit: 4; fill: rgb(255,255,255); fill-rule: nonzero; opacity: 1; visibility: hidden;" vector-effect="non-scaling-stroke"  x="-450" y="-450" rx="0" ry="0" width="900" height="900" />
</g>
<g transform="matrix(Infinity NaN NaN Infinity 0 0)" id="637922bb-2da0-46a3-90e5-d22ef31c6cf6"  >
</g>
<g transform="matrix(1.7 0 0 1.7 450 450)"  >
<g style="" vector-effect="non-scaling-stroke"   >
		<g transform="matrix(1 0 0 1 0 0)"  >
<rect style="stroke: none; stroke-width: 1; stroke-dasharray: none; stroke-linecap: butt; stroke-dashoffset: 0; stroke-linejoin: miter; stroke-miterlimit: 4; fill: rgb(255,255,255); fill-rule: nonzero; opacity: 1; visibility: hidden;" vector-effect="non-scaling-stroke"  x="-540" y="-540" rx="0" ry="0" width="1080" height="1080" />
</g>
		<g transform="matrix(1 0 0 1 0 0)"  >
<path style="stroke: rgb(0,0,0); stroke-width: 0; stroke-dasharray: none; stroke-linecap: butt; stroke-dashoffset: 0; stroke-linejoin: miter; stroke-miterlimit: 4; fill: rgb(219,219,219); fill-rule: nonzero; opacity: 1;" vector-effect="non-scaling-stroke"  transform=" translate(-256, -256)" d="M 478.856 311.204 C 470.226 300.434 457.76 282.133 470.226 275.651 C 475.414 272.963 481.872 275.38800000000003 483.7 280.027 C 485.102 283.633 481.00399999999996 288.584 481.00399999999996 288.584 C 470.22599999999994 285.354 469.35799999999995 299.419 478.85599999999994 299.353 C 485.39599999999996 299.303 500.38599999999997 288.584 495.0009999999999 270.274 C 489.62499999999994 251.948 467.13499999999993 247.916 452.9899999999999 254.112 C 421.6409999999999 267.848 433.6069999999999 298.82 444.3759999999999 313.359 C 467.7179999999999 344.87199999999996 446.4169999999999 407.078 365.9419999999999 407.078 C 311.8169999999999 407.078 283.1569999999999 407.078 270.17399999999986 407.078 L 270.17399999999986 373.697 L 398.13399999999984 373.697 C 361.58099999999985 267.111 384.05399999999986 181.481 397.88899999999984 144.78 L 435.44199999999984 144.78 L 435.44199999999984 125.38900000000001 L 406.3299999999998 125.38900000000001 L 406.3299999999998 125.37200000000001 L 270.175 125.37200000000001 L 270.175 67.28 C 287.459 52.888000000000005 313.088 56.798 336.47900000000004 53.872 C 370.94200000000006 49.561 373.8190000000001 17.966 373.8190000000001 17.966 C 373.8190000000001 17.966 352.27200000000005 32.325 323.54600000000005 17.966 C 300.13800000000003 6.270000000000001 277.69000000000005 12.688000000000002 270.17500000000007 15.450000000000001 L 270.17500000000007 14.524000000000001 L 255.97100000000006 14.524000000000001 L 255.97100000000006 125.372 L 156.91700000000006 125.372 L 156.91700000000006 125.389 L 117.77300000000005 125.389 L 117.77300000000005 144.78 L 148.47500000000005 144.78 C 134.64800000000005 181.481 112.17600000000004 267.111 148.74500000000006 373.697 L 255.97100000000006 373.697 L 255.97100000000006 407.078 C 245.21800000000007 407.078 216.49200000000008 407.078 156.53200000000007 407.078 C 76.06600000000007 407.078 58.15800000000007 347.118 78.10600000000007 313.359 C 88.61400000000006 295.591 101.71800000000006 265.659 69.48400000000007 254.11199999999997 C 55.21500000000007 248.98099999999997 49.01900000000006 254.37399999999997 44.97900000000007 250.34199999999996 C 40.93800000000007 246.29299999999995 50.63400000000007 237.40899999999996 50.63400000000007 237.40899999999996 L 48.20800000000007 227.71299999999997 L 28.98 240.826 L 0 261.98 L 1.574 270.593 L 31.333000000000002 270.593 L 31.333000000000002 276.076 L 15.893000000000002 285.076 L 19.933000000000003 292.35400000000004 L 40.136 285.896 C 40.136 285.896 51.495000000000005 281.348 56.290000000000006 282.66700000000003 C 65.183 285.07700000000006 52.25000000000001 300.43500000000006 43.63600000000001 311.20500000000004 C -31.772999999999996 405.46400000000006 35.33400000000001 500.807 107.08000000000001 500.807 C 178.834 500.807 261.242 500.807 261.242 500.807 C 261.242 500.807 343.651 500.807 415.39700000000005 500.807 C 487.142 500.806 554.257 405.463 478.856 311.204 z M 255.971 354.298 L 162.859 354.298 C 143.763 290.731 146.869 236.344 153.196 201.036 C 157.843 175.227 164.785 155.762 169.341 144.78 L 377.26 144.78 C 372.966 157.156 368.303 173.228 364.77 192.382 C 357.77 230.222 353.99199999999996 287.429 371.957 354.298 L 270.175 354.298 L 255.971 354.298 z" stroke-linecap="round" />
</g>
		<g transform="matrix(0.18 0 0 0.18 -21.37 -9.5)"  >
<path style="stroke: none; stroke-width: 1.05103; stroke-dasharray: none; stroke-linecap: round; stroke-dashoffset: 0; stroke-linejoin: round; stroke-miterlimit: 4; fill: rgb(219,219,219); fill-rule: nonzero; opacity: 1;" vector-effect="non-scaling-stroke"  paint-order="stroke"  transform=" translate(-182.4, -250.04)" d="M 248.07279 -12.793664 C 175.94038 -12.793664 116.73329999999999 46.457271 116.73329999999999 118.59841 C 116.73329999999999 157.51956 133.98832 192.66993000000002 161.18761999999998 216.80725 C 58.500207 254.84854 -14.606185 358.21398 -14.606185 477.846 C -14.604809490554786 497.1947214023475 1.0799026250729717 512.8797115330838 20.42862400000001 512.88143 L 188.95771 512.88143 C 195.84636999999998 487.41900000000004 206.87739 463.731 221.41702999999998 442.81263 L 58.235927 442.81263 C 73.730605 344.39181 153.38526 271.2598 248.07279 271.2598 C 261.19565 271.2598 274.01344 272.71133 286.42803 275.39333 C 290.69128 232.58458 321.02392 197.084 361.15814 185.06962 C 372.73745 165.52882 379.41228 142.7937 379.41228 118.59840999999999 C 379.41228 46.45727099999999 320.20519 -12.793664000000021 248.07279 -12.793664000000021 z M 248.07279 57.27513 C 282.31572 57.27513 309.34266 84.303589 309.34266 118.59841 C 309.34266 152.89323000000002 282.31572 179.92581 248.07279000000003 179.92581 C 213.82986000000002 179.92581 186.80087000000003 152.89323000000002 186.80087000000003 118.59841000000002 C 186.80087000000003 84.30358900000002 213.82986000000002 57.27513000000002 248.07279000000003 57.27513000000002 z" stroke-linecap="round" />
</g>
		<g transform="matrix(0.18 0 0 0.18 19 19)"  >
<path style="stroke: none; stroke-width: 1.05103; stroke-dasharray: none; stroke-linecap: round; stroke-dashoffset: 0; stroke-linejoin: round; stroke-miterlimit: 4; fill: rgb(219,219,219); fill-rule: nonzero; opacity: 1;" vector-effect="non-scaling-stroke"  paint-order="stroke"  transform=" translate(-405.68, -407.75)" d="M 405.68024 197.47637 C 347.97426 197.47637 300.60865 244.87788 300.60865 302.59086 C 300.60865 333.7278 314.41208 361.8475 336.17154 381.15738 C 254.02152999999998 411.59044 195.53705 494.28294 195.53705 589.98865 C 195.53845085856082 605.467200965815 208.08579906163874 618.0147730104368 223.56435 618.01645 L 405.68024 618.01645 L 587.79476 618.01645 C 603.2738186193772 618.0154908482143 615.8219590343667 605.467708585695 615.82336 589.98865 C 615.82336 494.28326000000004 557.3398599999999 411.59069999999997 475.19029 381.15738 C 496.94976 361.84749999999997 510.75182 333.7278 510.75182 302.59086 C 510.75182 244.87788 463.38622 197.47637000000003 405.68024 197.47637000000003 z M 405.68024 253.53196 C 433.07461 253.53196 454.69586000000004 275.15497 454.69586000000004 302.59086 C 454.69586000000004 330.02674 433.07461000000006 351.65250000000003 405.68024 351.65250000000003 C 378.28587000000005 351.65250000000003 356.66324000000003 330.02674 356.66324000000003 302.59086 C 356.66324000000003 275.15497000000005 378.28587000000005 253.53196000000003 405.68024 253.53196000000003 z M 405.68024 424.71860000000004 C 481.43034 424.71860000000004 545.15396 483.22412 557.54976 561.96086 L 405.68024 561.96086 L 253.81075 561.96086 C 266.2065 483.22412 329.93014 424.7186 405.68024 424.7186 Z" stroke-linecap="round" />
</g>
</g>
</g>
</svg>